<?xml version="1.0" encoding="UTF-8" standalone="no"?>
<!-- Generator: Adobe Illustrator 17.1.0, SVG Export Plug-In . SVG Version: 6.00 Build 0)  -->

<svg
   xmlns:dc="http://purl.org/dc/elements/1.1/"
   xmlns:cc="http://creativecommons.org/ns#"
   xmlns:rdf="http://www.w3.org/1999/02/22-rdf-syntax-ns#"
   xmlns:svg="http://www.w3.org/2000/svg"
   xmlns="http://www.w3.org/2000/svg"
   xmlns:xlink="http://www.w3.org/1999/xlink"
   xmlns:sodipodi="http://sodipodi.sourceforge.net/DTD/sodipodi-0.dtd"
   xmlns:inkscape="http://www.inkscape.org/namespaces/inkscape"
   version="1.1"
   id="Layer_1"
   x="0px"
   y="0px"
   viewBox="0 0 880 600"
   enable-background="new 0 0 800 600"
   xml:space="preserve"
   inkscape:version="0.48.5 r10040"
   width="100%"
   height="100%"
   sodipodi:docname="robot_bg_3.svg"><metadata
     id="metadata3774"><rdf:RDF><cc:Work
         rdf:about=""><dc:format>image/svg+xml</dc:format><dc:type
           rdf:resource="http://purl.org/dc/dcmitype/StillImage" /><dc:title></dc:title></cc:Work></rdf:RDF></metadata><defs
     id="defs3772" /><sodipodi:namedview
     pagecolor="#ffffff"
     bordercolor="#666666"
     borderopacity="1"
     objecttolerance="10"
     gridtolerance="10"
     guidetolerance="10"
     inkscape:pageopacity="0"
     inkscape:pageshadow="2"
     inkscape:window-width="1920"
     inkscape:window-height="1014"
     id="namedview3770"
     showgrid="false"
     inkscape:zoom="0.96048671"
     inkscape:cx="452.96002"
     inkscape:cy="384.4349"
     inkscape:window-x="0"
     inkscape:window-y="27"
     inkscape:window-maximized="1"
     inkscape:current-layer="Layer_1" /><rect
     width="967.62323"
     height="600"
     id="rect3472"
     x="1.0411319"
     y="-1.0411404"
     style="fill:#f5f6f6"
     inkscape:transform-center-x="31.234165"
     inkscape:transform-center-y="-18.740499" /><g
     id="g3474"
     transform="matrix(0.77080306,0,0,0.85069314,489.96191,52.706979)"><g
       id="g3476"><path
         d="m 374,315.4 c -14.7,0 -26.1,-3.6 -31.4,-9.8 -2.7,-3.2 -3.7,-7 -3,-11.3 4,-23.5 -16.4,-105.3 -16.7,-106.1 -0.1,-0.6 0,-1.2 0.4,-1.6 0.3,-0.4 0.8,-0.6 1.3,-0.6 0.1,0 0.1,0 0.2,0 18.9,1.9 35.5,2.8 52.3,2.8 16.8,0 33.8,-0.9 52,-2.8 0.1,0 0.1,0 0.2,0 0.5,0 1,0.2 1.3,0.6 0.4,0.4 0.5,1 0.4,1.6 -0.2,0.8 -20.6,83.7 -16.7,106.1 0.6,3.4 -0.3,6.5 -2.7,9.4 -6.7,8.1 -23.7,11.7 -37.6,11.7 z"
         id="path3478"
         inkscape:connector-curvature="0"
         style="fill:#f5f5f5" /><path
         d="m 429.4,187.8 c 0,0 -20.7,83.8 -16.7,106.8 2.1,11.9 -18.9,19 -38.7,19 -17.9,0 -34.9,-5.8 -32.6,-19 4.1,-24.1 -16.7,-106.8 -16.7,-106.8 17.9,1.8 34.9,2.8 52.5,2.8 16.6,0.1 33.6,-0.8 52.2,-2.8 m 0,-3.5 c -0.1,0 -0.2,0 -0.4,0 -18.2,1.9 -35.1,2.8 -51.8,2.8 -16.8,0 -33.4,-0.9 -52.2,-2.8 -0.1,0 -0.2,0 -0.4,0 -1,0 -2,0.4 -2.7,1.2 -0.8,0.9 -1,2.1 -0.8,3.2 0.2,0.8 20.6,82.2 16.6,105.4 -0.8,4.7 0.4,9.1 3.4,12.7 7.9,9.4 25.5,10.4 32.7,10.4 7.8,0 15.8,-1.1 22.5,-3 7.6,-2.2 13.3,-5.4 16.6,-9.3 2.7,-3.2 3.8,-7 3.1,-10.8 -3.8,-22.1 16.4,-104.5 16.6,-105.4 0.3,-1.1 0,-2.3 -0.8,-3.2 -0.4,-0.8 -1.4,-1.2 -2.4,-1.2 l 0,0 z"
         id="path3480"
         inkscape:connector-curvature="0"
         style="fill:#3d3a3a" /></g><rect
       x="315.29999"
       y="188.2"
       transform="matrix(-0.9913,-0.1317,0.1317,-0.9913,607.0971,532.2718)"
       width="11.7"
       height="115.7"
       id="rect3482"
       style="fill:#3d3a3a" /><path
       stroke-miterlimit="10"
       d="m 416,315.2 c -2,18.7 1.8,52.7 8.9,78.2 l -3.2,2.1 c -17.5,-13.9 -38.8,-59.4 -37.8,-76.3"
       id="path3484"
       inkscape:connector-curvature="0"
       style="fill:#3d3a3a;stroke:#3d3a3a;stroke-width:2.8296001;stroke-linecap:round;stroke-linejoin:round;stroke-miterlimit:10" /><path
       stroke-miterlimit="10"
       d="m 338.3,315.2 c 5,13.4 -0.8,55.3 -7.5,81.1 l 4,0.7 c 14,-12 35.3,-60.8 34.3,-77.7"
       id="path3486"
       inkscape:connector-curvature="0"
       style="fill:#3d3a3a;stroke:#3d3a3a;stroke-width:2.8296001;stroke-linecap:round;stroke-linejoin:round;stroke-miterlimit:10" /><g
       id="g3488"><path
         d="m 351,330.4 c -4.6,0 -8.3,-4 -8.3,-8.8 V 299 c 0,-4.9 3.7,-8.8 8.3,-8.8 h 51.9 c 4.6,0 8.3,4 8.3,8.8 v 22.6 c 0,4.9 -3.7,8.8 -8.3,8.8 H 351 z"
         id="path3490"
         inkscape:connector-curvature="0"
         style="fill:#f5f5f5" /><g
         id="g3492"><path
           d="m 402.8,291.9 c 3.6,0 6.6,3.2 6.6,7.1 v 22.6 c 0,3.9 -2.9,7.1 -6.6,7.1 H 351 c -3.6,0 -6.6,-3.2 -6.6,-7.1 V 299 c 0,-3.9 2.9,-7.1 6.6,-7.1 h 51.8 m 0,-3.6 H 351 c -5.6,0 -10.1,4.8 -10.1,10.6 v 22.6 c 0,5.9 4.5,10.6 10.1,10.6 h 51.9 c 5.6,0 10.1,-4.8 10.1,-10.6 V 299 c -0.1,-5.9 -4.6,-10.7 -10.2,-10.7 l 0,0 z"
           id="path3494"
           inkscape:connector-curvature="0"
           style="fill:#3d3a3a" /></g></g><rect
       x="443.39999"
       y="184.89999"
       transform="matrix(0.9106,-0.4132,0.4132,0.9106,-60.162,207.3386)"
       width="11.7"
       height="115.7"
       id="rect3496"
       style="fill:#3d3a3a" /><path
       stroke-miterlimit="10"
       d="M 387.6,191.4 H 365 c 0,0 1.4,-25.5 -1.4,-33.2 -2.8,-7.7 29.3,-9.3 25.5,0 -3.3,7.9 -1.5,33.2 -1.5,33.2 z"
       id="path3498"
       inkscape:connector-curvature="0"
       style="fill:#f5f5f5;stroke:#3d3a3a;stroke-width:3.53690004;stroke-linejoin:round;stroke-miterlimit:10" /><g
       id="g3500"><path
         d="m 376,151.4 c -26.4,0 -31.4,-13.4 -31.4,-38.1 0,-19.5 0,-52.2 31.4,-52.2 31.4,0 31.4,32.7 31.4,52.2 -0.1,24.7 -5.1,38.1 -31.4,38.1 z"
         id="path3502"
         inkscape:connector-curvature="0"
         style="fill:#f5f5f5" /><path
         d="m 376,62.9 c 28,0 29.6,26.5 29.6,50.4 0,24 -4.7,36.3 -29.6,36.3 -24.9,0 -29.6,-12.3 -29.6,-36.3 0,-23.9 1.6,-50.4 29.6,-50.4 m 0,-3.5 c -14,0 -23.6,6.2 -28.6,18.4 -4.2,10.4 -4.6,23.8 -4.6,35.5 0,18.1 3.1,24.9 6.1,29.2 5.1,7.3 13.7,10.7 27,10.7 13.3,0 21.9,-3.4 27,-10.7 5.4,-7.6 6.1,-19 6.1,-29.2 0,-11.7 -0.4,-25.1 -4.6,-35.5 C 399.6,65.6 390,59.4 376,59.4 l 0,0 z"
         id="path3504"
         inkscape:connector-curvature="0"
         style="fill:#3d3a3a" /></g><g
       id="g3506"><path
         d="m 359.3,159.9 c -0.1,0 -0.3,0 -0.4,0 -21.3,-4.7 -17.9,-32.2 -17.9,-32.4 0.1,-0.9 0.9,-1.5 1.8,-1.5 H 409 c 0.9,0 1.6,0.7 1.8,1.5 0,0.3 3.5,27.7 -17.9,32.4 -0.1,0 -0.3,0 -0.4,0 h -33.2 z"
         id="path3508"
         inkscape:connector-curvature="0"
         style="fill:#f5f5f5" /><path
         d="m 409.1,127.7 c 0,0 3.5,26.1 -16.5,30.5 0,0 -8.4,0 -16.3,0 -0.2,0 -0.5,0 -0.7,0 -7.9,0 -16.3,0 -16.3,0 -20,-4.4 -16.5,-30.5 -16.5,-30.5 h 32.8 0.7 32.8 m 0,-3.6 h -32.8 -0.7 -32.8 c -1.8,0 -3.3,1.3 -3.5,3.1 0,0.3 -0.9,7.2 0.8,14.8 2.5,10.7 8.8,17.4 18.4,19.6 0.3,0.1 0.5,0.1 0.8,0.1 h 16.3 0.7 16.3 c 0.3,0 0.5,0 0.8,-0.1 9.6,-2.1 16,-8.9 18.4,-19.6 1.7,-7.6 0.8,-14.6 0.8,-14.8 -0.2,-1.8 -1.7,-3.1 -3.5,-3.1 l 0,0 z"
         id="path3510"
         inkscape:connector-curvature="0"
         style="fill:#3d3a3a" /></g><g
       id="g3512"><path
         d="m 390,101.4 c -5.1,0 -9.3,-4.2 -9.3,-9.3 0,-5.1 4.2,-9.3 9.3,-9.3 5.1,0 9.3,4.2 9.3,9.3 0,5.1 -4.2,9.3 -9.3,9.3 z"
         id="path3514"
         inkscape:connector-curvature="0"
         style="fill:#f5f5f5" /><path
         d="m 390,84.5 c 4.2,0 7.5,3.4 7.5,7.5 0,4.2 -3.4,7.5 -7.5,7.5 -4.2,0 -7.5,-3.4 -7.5,-7.5 0,-4.1 3.3,-7.5 7.5,-7.5 m 0,-3.5 c -6.1,0 -11.1,5 -11.1,11.1 0,6.1 5,11.1 11.1,11.1 6.1,0 11.1,-5 11.1,-11.1 C 401.1,86 396.1,81 390,81 l 0,0 z"
         id="path3516"
         inkscape:connector-curvature="0"
         style="fill:#3d3a3a" /></g><g
       id="g3518"><path
         d="m 390,101.8 c -5.3,0 -9.7,-4.3 -9.7,-9.7 0,-5.3 4.3,-9.7 9.7,-9.7 5.3,0 9.7,4.3 9.7,9.7 0,5.3 -4.4,9.7 -9.7,9.7 z"
         id="path3520"
         inkscape:connector-curvature="0"
         style="fill:#f5f5f5" /><path
         d="m 390,84.5 c 4.2,0 7.5,3.4 7.5,7.5 0,4.2 -3.4,7.5 -7.5,7.5 -4.2,0 -7.5,-3.4 -7.5,-7.5 0,-4.1 3.3,-7.5 7.5,-7.5 m 0,-4.2 c -6.5,0 -11.8,5.3 -11.8,11.8 0,6.5 5.3,11.8 11.8,11.8 6.5,0 11.8,-5.3 11.8,-11.8 0,-6.5 -5.3,-11.8 -11.8,-11.8 l 0,0 z"
         id="path3522"
         inkscape:connector-curvature="0"
         style="fill:#3d3a3a" /></g><g
       id="g3524"><path
         d="m 362.4,101.4 c -5.1,0 -9.3,-4.2 -9.3,-9.3 0,-5.1 4.2,-9.3 9.3,-9.3 5.1,0 9.3,4.2 9.3,9.3 0,5.1 -4.1,9.3 -9.3,9.3 z"
         id="path3526"
         inkscape:connector-curvature="0"
         style="fill:#f5f5f5" /><path
         d="m 362.4,84.5 c 4.2,0 7.5,3.4 7.5,7.5 0,4.2 -3.4,7.5 -7.5,7.5 -4.2,0 -7.5,-3.4 -7.5,-7.5 0,-4.1 3.3,-7.5 7.5,-7.5 m 0,-3.5 c -6.1,0 -11.1,5 -11.1,11.1 0,6.1 5,11.1 11.1,11.1 6.1,0 11.1,-5 11.1,-11.1 0,-6.1 -5,-11.1 -11.1,-11.1 l 0,0 z"
         id="path3528"
         inkscape:connector-curvature="0"
         style="fill:#3d3a3a" /></g><circle
       cx="362.39999"
       cy="94.900002"
       r="2.4000001"
       id="circle3530"
       sodipodi:cx="362.39999"
       sodipodi:cy="94.900002"
       sodipodi:rx="2.4000001"
       sodipodi:ry="2.4000001"
       style="fill:#3d3a3a"
       d="m 364.79999,94.900002 c 0,1.325483 -1.07451,2.4 -2.4,2.4 -1.32548,0 -2.4,-1.074517 -2.4,-2.4 0,-1.325484 1.07452,-2.400001 2.4,-2.400001 1.32549,0 2.4,1.074517 2.4,2.400001 z" /><rect
       x="379.29999"
       y="87.5"
       transform="matrix(0.818,-0.5753,0.5753,0.818,19.5235,239.5812)"
       width="18"
       height="2.8"
       id="rect3532"
       style="fill:#3d3a3a" /><rect
       x="382.10001"
       y="90.300003"
       transform="matrix(0.818,-0.5753,0.5753,0.818,18.2433,241.7546)"
       width="18"
       height="3.5"
       id="rect3534"
       style="fill:#3d3a3a" /><path
       d="m 402.7,95.9 c 1.2,0.6 1.6,2.3 0.8,3.6 l 0,0 c -0.7,1.4 -2.3,2 -3.5,1.4 l -1.6,-0.9 c -1.2,-0.6 -1.6,-2.3 -0.8,-3.6 l 0,0 c 0.7,-1.4 2.3,-2 3.5,-1.4 l 1.6,0.9 z"
       id="path3536"
       inkscape:connector-curvature="0"
       style="fill:#3d3a3a" /><g
       id="g3538"><path
         d="m 411.3,74.8 c -0.1,-2.8 -1.2,-5 -2.6,-5 h -65.4 c -1.4,0 -2.5,2.2 -2.6,5 h 70.6 z"
         id="path3540"
         inkscape:connector-curvature="0"
         style="fill:#3d3a3a" /></g><rect
       x="349.39999"
       y="20.4"
       width="53.099998"
       height="52.799999"
       id="rect3542"
       style="fill:#3d3a3a" /><ellipse
       cx="376"
       cy="20.299999"
       rx="26.5"
       ry="2"
       id="ellipse3544"
       sodipodi:cx="376"
       sodipodi:cy="20.299999"
       sodipodi:rx="26.5"
       sodipodi:ry="2"
       style="fill:#3d3a3a"
       d="m 402.5,20.299999 c 0,1.10457 -11.86445,2 -26.5,2 -14.63555,0 -26.5,-0.89543 -26.5,-2 0,-1.104569 11.86445,-2 26.5,-2 14.63555,0 26.5,0.895431 26.5,2 z" /><g
       id="g3546"><polygon
         points="349.7,186.9 360.7,177.3 376.1,188.9 357.5,204.6 "
         id="polygon3548"
         style="fill:#f5f5f5" /><path
         d="m 360.8,179.6 12.5,9.4 -15.1,12.7 -6.4,-14.4 9,-7.7 m -0.2,-4.6 -2.2,1.9 -9,7.8 -2,1.7 1.1,2.4 6.4,14.4 1.9,4.3 3.6,-3 15.1,-12.7 3.4,-2.9 -3.5,-2.7 -12.5,-9.4 -2.3,-1.8 0,0 z"
         id="path3550"
         inkscape:connector-curvature="0"
         style="fill:#3d3a3a" /></g><g
       id="g3552"><polygon
         points="376.6,188.9 392,177.3 403,186.9 395.1,204.6 "
         id="polygon3554"
         style="fill:#f5f5f5" /><path
         d="m 391.9,179.6 9,7.8 -6.4,14.4 -15.1,-12.8 12.5,-9.4 m 0.1,-4.6 -2.3,1.7 -12.5,9.4 -3.5,2.7 3.4,2.9 15.1,12.7 3.6,3 1.9,-4.3 6.4,-14.4 1.1,-2.4 -2,-1.7 -9,-7.8 -2.2,-1.8 0,0 z"
         id="path3556"
         inkscape:connector-curvature="0"
         style="fill:#3d3a3a" /></g><polygon
       stroke-miterlimit="10"
       points="486.2,358.9 483.7,364 475.1,361.5 475.8,342.4 481.5,340 501,356.6 494.2,367.9 488.9,366.5 493.6,356.5 477.2,346.2 480.4,349 480.6,357.8 "
       id="polygon3558"
       style="fill:#3d3a3a;stroke:#3d3a3a;stroke-width:2.8296001;stroke-linecap:round;stroke-linejoin:round;stroke-miterlimit:10" /><g
       id="g3560"><path
         d="m 470.2,346.3 c -6.6,-8 -11.3,-18.5 -15.5,-35.3 -5.9,-23.6 -6.5,-48.9 3.9,-51.5 0.5,-0.1 1.1,-0.2 1.6,-0.2 10.4,0 20.8,22.7 26.1,43.8 4.2,16.7 5.1,28.2 3,38.4 l -0.2,1.1 -18.1,4.5 -0.8,-0.8 z"
         id="path3562"
         inkscape:connector-curvature="0"
         style="fill:#f5f5f5" /><path
         d="m 460.2,261.2 c 7.7,0 18,17.3 24.3,42.4 4.3,17.3 4.9,28.2 3,37.6 l -16,4 c -6.1,-7.4 -10.8,-17.2 -15.1,-34.6 -6.6,-26.4 -5.2,-47.4 2.6,-49.3 0.4,-0.1 0.8,-0.1 1.2,-0.1 m 0,-3.6 c -0.7,0 -1.4,0.1 -2,0.3 -3.8,1 -8.6,5 -9.4,18.7 -0.5,9.5 1,21.9 4.2,34.9 4.3,17 9,27.8 15.8,36 l 1.4,1.7 2.2,-0.5 16,-4 2.2,-0.5 0.4,-2.2 c 2.1,-10.4 1.2,-22.2 -3,-39.2 -5.7,-22.5 -16.4,-45.2 -27.8,-45.2 l 0,0 z"
         id="path3564"
         inkscape:connector-curvature="0"
         style="fill:#3d3a3a" /></g><path
       stroke-miterlimit="10"
       d="m 471.8,264.6 c 1.5,5.8 -20.5,11.3 -22,5.5 -1.5,-5.8 2.3,-11.7 8.4,-13.2 6,-1.6 12.1,1.9 13.6,7.7 z"
       id="path3566"
       inkscape:connector-curvature="0"
       style="fill:#f5f5f5;stroke:#3d3a3a;stroke-width:3.53690004;stroke-linejoin:round;stroke-miterlimit:10" /><path
       d="m 411.9,131.9 c 0,0.8 -0.6,1.4 -1.4,1.4 H 394 c -0.8,0 -1.4,-0.6 -1.4,-1.4 l 0,0 c 0,-0.8 0.6,-1.4 1.4,-1.4 h 16.5 c 0.8,0 1.4,0.7 1.4,1.4 l 0,0 z"
       id="path3568"
       inkscape:connector-curvature="0"
       style="fill:#3d3a3a" /><path
       d="m 411.9,138.3 c 0,0.8 -0.6,1.4 -1.4,1.4 H 394 c -0.8,0 -1.4,-0.6 -1.4,-1.4 l 0,0 c 0,-0.8 0.6,-1.4 1.4,-1.4 h 16.5 c 0.8,0 1.4,0.6 1.4,1.4 l 0,0 z"
       id="path3570"
       inkscape:connector-curvature="0"
       style="fill:#3d3a3a" /><path
       d="m 409.8,144.7 c 0,0.8 -0.6,1.4 -1.4,1.4 H 394 c -0.8,0 -1.4,-0.6 -1.4,-1.4 l 0,0 c 0,-0.8 0.6,-1.4 1.4,-1.4 h 14.4 c 0.8,0 1.4,0.6 1.4,1.4 l 0,0 z"
       id="path3572"
       inkscape:connector-curvature="0"
       style="fill:#3d3a3a" /><path
       d="m 478.3,277.1 c 0.2,0.8 -0.3,1.7 -1.1,1.9 l -4.8,1.2 c -0.8,0.2 -1.7,-0.3 -1.9,-1.1 l 0,0 c -0.2,-0.8 0.3,-1.7 1.1,-1.9 l 4.8,-1.2 c 0.9,-0.2 1.7,0.3 1.9,1.1 l 0,0 z"
       id="path3574"
       inkscape:connector-curvature="0"
       style="fill:#3d3a3a" /><path
       d="m 480,284 c 0.2,0.8 -0.3,1.7 -1.1,1.9 l -4.8,1.2 c -0.8,0.2 -1.7,-0.3 -1.9,-1.1 l 0,0 c -0.2,-0.8 0.3,-1.7 1.1,-1.9 l 4.8,-1.2 c 0.9,-0.2 1.7,0.3 1.9,1.1 l 0,0 z"
       id="path3576"
       inkscape:connector-curvature="0"
       style="fill:#3d3a3a" /><path
       d="m 483.1,290.5 c 0.2,0.8 -0.3,1.7 -1.1,1.9 l -6.2,1.5 c -0.8,0.2 -1.7,-0.3 -1.9,-1.1 l 0,0 c -0.2,-0.8 0.3,-1.7 1.1,-1.9 l 6.2,-1.5 c 0.9,-0.2 1.7,0.3 1.9,1.1 l 0,0 z"
       id="path3578"
       inkscape:connector-curvature="0"
       style="fill:#3d3a3a" /><path
       d="m 485.5,297.2 c 0.2,0.8 -0.3,1.7 -1.1,1.9 l -6.9,1.7 c -0.8,0.2 -1.7,-0.3 -1.9,-1.1 l 0,0 c -0.2,-0.8 0.3,-1.7 1.1,-1.9 l 6.9,-1.7 c 0.9,-0.2 1.7,0.3 1.9,1.1 l 0,0 z"
       id="path3580"
       inkscape:connector-curvature="0"
       style="fill:#3d3a3a" /><path
       d="m 486.6,304.2 c 0.2,0.8 -0.3,1.7 -1.1,1.9 l -6.2,1.5 c -0.8,0.2 -1.7,-0.3 -1.9,-1.1 l 0,0 c -0.2,-0.8 0.3,-1.7 1.1,-1.9 l 6.2,-1.5 c 0.8,-0.2 1.7,0.3 1.9,1.1 l 0,0 z"
       id="path3582"
       inkscape:connector-curvature="0"
       style="fill:#3d3a3a" /><path
       d="m 488.3,311.1 c 0.2,0.8 -0.3,1.7 -1.1,1.9 l -6.2,1.5 c -0.8,0.2 -1.7,-0.3 -1.9,-1.1 l 0,0 c -0.2,-0.8 0.3,-1.7 1.1,-1.9 l 6.2,-1.5 c 0.8,-0.2 1.7,0.3 1.9,1.1 l 0,0 z"
       id="path3584"
       inkscape:connector-curvature="0"
       style="fill:#3d3a3a" /><path
       d="m 490,318 c 0.2,0.8 -0.3,1.7 -1.1,1.9 l -6.2,1.5 c -0.8,0.2 -1.7,-0.3 -1.9,-1.1 l 0,0 c -0.2,-0.8 0.3,-1.7 1.1,-1.9 l 6.2,-1.5 c 0.9,-0.3 1.7,0.2 1.9,1.1 l 0,0 z"
       id="path3586"
       inkscape:connector-curvature="0"
       style="fill:#3d3a3a" /><path
       d="m 490.3,325.2 c 0.2,0.8 -0.3,1.7 -1.1,1.9 l -4.8,1.2 c -0.8,0.2 -1.7,-0.3 -1.9,-1.1 l 0,0 c -0.2,-0.8 0.3,-1.7 1.1,-1.9 l 4.8,-1.2 c 0.9,-0.3 1.7,0.2 1.9,1.1 l 0,0 z"
       id="path3588"
       inkscape:connector-curvature="0"
       style="fill:#3d3a3a" /><path
       d="m 492.1,332 c 0.2,0.8 -0.3,1.7 -1.1,1.9 l -4.8,1.2 c -0.8,0.2 -1.7,-0.3 -1.9,-1.1 l 0,0 c -0.2,-0.8 0.3,-1.7 1.1,-1.9 l 4.8,-1.2 c 0.8,-0.2 1.7,0.3 1.9,1.1 l 0,0 z"
       id="path3590"
       inkscape:connector-curvature="0"
       style="fill:#3d3a3a" /><g
       id="g3592"><path
         stroke-miterlimit="10"
         d="m 359.8,125 0,1.3 c -7.7,-5.7 -18.7,-4.4 -23.6,4 -1.9,3.2 -5,8.6 -4.7,3.8 0.2,-1.5 0.3,-3.2 0.3,-5 0,-2.5 -0.3,-4.9 -0.7,-6.9 0,0 0,0 0,0 -0.7,-0.8 -14.7,-0.7 -15.4,0 0,0 0,0 0,0 0,0 0,0 0,0 -0.5,2.1 -0.8,4.4 -0.9,7 -0.4,7.2 1.9,13 4.4,15.2 4.9,4.4 17.1,5.5 23.8,-10.2 4,-9.3 12.9,-7.8 16.5,-7.6"
         id="path3594"
         inkscape:connector-curvature="0"
         style="fill:#3d3a3a;stroke:#3d3a3a;stroke-width:1.41480005;stroke-linecap:round;stroke-linejoin:round;stroke-miterlimit:10" /></g><path
       stroke-miterlimit="10"
       d="m 313,96.2 c 3.6,2.3 1.9,5.6 0.3,8.2 -1.7,2.9 -0.2,6.8 1.6,8.9 -1.3,-3.4 -2.3,-5.3 -0.1,-8.4 2,-2.9 3.5,-7 -1.8,-8.7 z"
       id="path3596"
       inkscape:connector-curvature="0"
       style="fill:#3d3a3a;stroke:#3d3a3a;stroke-width:1.41480005;stroke-linecap:round;stroke-linejoin:round;stroke-miterlimit:10" /><path
       stroke-miterlimit="10"
       d="m 318.5,92.5 c 5.5,3.5 2.8,8.5 0.5,12.4 -2.6,4.4 -0.4,10.3 2.5,13.4 -1.9,-5.1 -3.5,-8.1 -0.2,-12.7 3,-4.3 5.3,-10.4 -2.8,-13.1 z"
       id="path3598"
       inkscape:connector-curvature="0"
       style="fill:#3d3a3a;stroke:#3d3a3a;stroke-width:1.41480005;stroke-linecap:round;stroke-linejoin:round;stroke-miterlimit:10" /><g
       id="g3600"><g
         id="g3602"><rect
           x="480.10001"
           y="371.39999"
           transform="matrix(0.9996,0.02856275,-0.02856275,0.9996,13.8085,-13.6204)"
           width="7.1999998"
           height="210.2"
           id="rect3604"
           style="fill:#3d3a3a" /></g><path
         stroke-miterlimit="10"
         d="m 495.8,361.2 c 0.1,-3 -3.8,-5.5 -8.6,-5.6 -4.9,-0.1 -8.9,2.2 -8.9,5.1 0,0.7 0.2,1.4 0.6,2 l 2.2,9.3 11.5,0.3 2.7,-9.1 c 0.2,-0.7 0.4,-1.3 0.5,-2 z"
         id="path3606"
         inkscape:connector-curvature="0"
         style="fill:#f5f5f5;stroke:#3d3a3a;stroke-width:3.53690004;stroke-linejoin:round;stroke-miterlimit:10" /></g><rect
       x="477.20001"
       y="574.79999"
       transform="matrix(0.9996,0.0285631,-0.0285631,0.9996,16.7114,-13.4961)"
       stroke-miterlimit="10"
       width="7.1999998"
       height="6.8000002"
       id="rect3608"
       style="fill:#3d3a3a;stroke:#3d3a3a;stroke-width:2.8355;stroke-linejoin:round;stroke-miterlimit:10" /><path
       stroke-miterlimit="10"
       d="m 415,109.5 c 0,1.6 -1.3,2.8 -2.8,2.8 h -1.9 c -1.6,0 -2.8,-1.3 -2.8,-2.8 v -4.2 c 0,-1.6 1.3,-2.8 2.8,-2.8 h 1.9 c 1.6,0 2.8,1.3 2.8,2.8 v 4.2 z"
       id="path3610"
       inkscape:connector-curvature="0"
       style="fill:#3d3a3a;stroke:#3d3a3a;stroke-width:2.12220001;stroke-linecap:round;stroke-linejoin:round;stroke-miterlimit:10" /><path
       stroke-miterlimit="10"
       d="m 344.3,109.5 c 0,1.6 -1.3,2.8 -2.8,2.8 h -1.9 c -1.6,0 -2.8,-1.3 -2.8,-2.8 v -4.2 c 0,-1.6 1.3,-2.8 2.8,-2.8 h 1.9 c 1.6,0 2.8,1.3 2.8,2.8 v 4.2 z"
       id="path3612"
       inkscape:connector-curvature="0"
       style="fill:#3d3a3a;stroke:#3d3a3a;stroke-width:2.12220001;stroke-linecap:round;stroke-linejoin:round;stroke-miterlimit:10" /><path
       stroke-miterlimit="10"
       d="m 402.1,98.8 c 4.1,8.1 -4.9,92.8 5.8,72 4.5,-8.7 9.4,-24.5 7.1,-63.7"
       id="path3614"
       inkscape:connector-curvature="0"
       style="fill:none;stroke:#3d3a3a;stroke-width:2.12220001;stroke-linecap:round;stroke-linejoin:round;stroke-miterlimit:10" /><path
       stroke-miterlimit="10"
       d="M 369.9,335.4 C 357,351 355.5,443.6 358.8,464.9"
       id="path3616"
       inkscape:connector-curvature="0"
       style="fill:none;stroke:#3d3a3a;stroke-width:5.65910006;stroke-linecap:round;stroke-miterlimit:10" /><path
       stroke-miterlimit="10"
       d="M 382.1,335.4 C 395,351 396.5,443.6 393.2,464.9"
       id="path3618"
       inkscape:connector-curvature="0"
       style="fill:none;stroke:#3d3a3a;stroke-width:5.65910006;stroke-linecap:round;stroke-miterlimit:10" /><g
       id="g3620"><path
         d="m 363.8,465.6 c 0,6.7 0,12.2 -1.7,12.2 -1.7,0 -1.7,-5.4 -1.7,-12.2 0,-6.7 -0.1,-12.2 1.7,-12.2 1.8,0.1 1.7,5.5 1.7,12.2 z"
         id="path3622"
         inkscape:connector-curvature="0"
         style="fill:#3d3a3a" /><path
         d="m 375.4,465.6 c 0,1 -0.8,1.9 -1.9,1.9 h -10.8 c -1,0 -1.9,-0.8 -1.9,-1.9 l 0,0 c 0,-1 0.8,-1.9 1.9,-1.9 h 10.8 c 1.1,0 1.9,0.9 1.9,1.9 l 0,0 z"
         id="path3624"
         inkscape:connector-curvature="0"
         style="fill:#3d3a3a" /></g><g
       id="g3626"><path
         d="m 388.3,465.6 c 0,6.7 0,12.2 1.7,12.2 1.7,0 1.7,-5.4 1.7,-12.2 0,-6.7 0.1,-12.2 -1.7,-12.2 -1.8,0.1 -1.7,5.5 -1.7,12.2 z"
         id="path3628"
         inkscape:connector-curvature="0"
         style="fill:#3d3a3a" /><path
         d="m 376.7,465.6 c 0,1 0.8,1.9 1.9,1.9 h 10.8 c 1,0 1.9,-0.8 1.9,-1.9 l 0,0 c 0,-1 -0.8,-1.9 -1.9,-1.9 h -10.8 c -1.1,0 -1.9,0.9 -1.9,1.9 l 0,0 z"
         id="path3630"
         inkscape:connector-curvature="0"
         style="fill:#3d3a3a" /></g><path
       d="m 379.6,579 c 0,1.4 -1.6,2.6 -3.6,2.6 l 0,0 c -2,0 -3.6,-1.2 -3.6,-2.6 V 352.2 c 0,-1.4 1.6,-2.6 3.6,-2.6 l 0,0 c 2,0 3.6,1.2 3.6,2.6 V 579 z"
       id="path3632"
       inkscape:connector-curvature="0"
       style="fill:#3d3a3a" /><path
       stroke-miterlimit="10"
       d="m 373.4,356.7 c -2.4,6.1 -10.6,74.7 -10.6,98.6"
       id="path3634"
       inkscape:connector-curvature="0"
       style="fill:none;stroke:#3d3a3a;stroke-width:1.41480005;stroke-linecap:round;stroke-miterlimit:10" /><path
       stroke-miterlimit="10"
       d="m 378.7,356.7 c 2.4,6.1 10.6,74.7 10.6,98.6"
       id="path3636"
       inkscape:connector-curvature="0"
       style="fill:none;stroke:#3d3a3a;stroke-width:1.41480005;stroke-linecap:round;stroke-miterlimit:10" /><g
       id="g3638"><path
         stroke-miterlimit="10"
         d="m 373.4,383.5 c -2.4,4.9 -10.6,59.7 -10.6,78.8"
         id="path3640"
         inkscape:connector-curvature="0"
         style="fill:none;stroke:#3d3a3a;stroke-width:1.41480005;stroke-linecap:round;stroke-miterlimit:10" /><path
         stroke-miterlimit="10"
         d="m 378.7,383.5 c 2.4,4.9 10.6,59.7 10.6,78.8"
         id="path3642"
         inkscape:connector-curvature="0"
         style="fill:none;stroke:#3d3a3a;stroke-width:1.41480005;stroke-linecap:round;stroke-miterlimit:10" /><path
         stroke-miterlimit="10"
         d="m 373.4,415.1 c -2.4,3.3 -10.6,39.7 -10.6,52.4"
         id="path3644"
         inkscape:connector-curvature="0"
         style="fill:none;stroke:#3d3a3a;stroke-width:1.41480005;stroke-linecap:round;stroke-miterlimit:10" /><path
         stroke-miterlimit="10"
         d="m 378.7,415.1 c 2.4,3.3 10.6,39.7 10.6,52.4"
         id="path3646"
         inkscape:connector-curvature="0"
         style="fill:none;stroke:#3d3a3a;stroke-width:1.41480005;stroke-linecap:round;stroke-miterlimit:10" /><path
         stroke-miterlimit="10"
         d="m 373.4,443.4 c -2.4,1.6 -10.6,19.1 -10.6,25.2"
         id="path3648"
         inkscape:connector-curvature="0"
         style="fill:none;stroke:#3d3a3a;stroke-width:1.41480005;stroke-linecap:round;stroke-miterlimit:10" /><path
         stroke-miterlimit="10"
         d="m 378.7,443.4 c 2.4,1.6 10.6,19.1 10.6,25.2"
         id="path3650"
         inkscape:connector-curvature="0"
         style="fill:none;stroke:#3d3a3a;stroke-width:1.41480005;stroke-linecap:round;stroke-miterlimit:10" /></g><g
       id="g3652"><path
         stroke-miterlimit="10"
         d="M 373.4,547.7 C 371,542.8 362.8,488 362.8,468.9"
         id="path3654"
         inkscape:connector-curvature="0"
         style="fill:none;stroke:#3d3a3a;stroke-width:1.41480005;stroke-linecap:round;stroke-miterlimit:10" /><path
         stroke-miterlimit="10"
         d="m 378.7,547.7 c 2.4,-4.9 10.6,-59.7 10.6,-78.8"
         id="path3656"
         inkscape:connector-curvature="0"
         style="fill:none;stroke:#3d3a3a;stroke-width:1.41480005;stroke-linecap:round;stroke-miterlimit:10" /><path
         stroke-miterlimit="10"
         d="M 373.4,516.1 C 371,512.8 362.8,476.4 362.8,463.7"
         id="path3658"
         inkscape:connector-curvature="0"
         style="fill:none;stroke:#3d3a3a;stroke-width:1.41480005;stroke-linecap:round;stroke-miterlimit:10" /><path
         stroke-miterlimit="10"
         d="m 378.7,516.1 c 2.4,-3.3 10.6,-39.7 10.6,-52.4"
         id="path3660"
         inkscape:connector-curvature="0"
         style="fill:none;stroke:#3d3a3a;stroke-width:1.41480005;stroke-linecap:round;stroke-miterlimit:10" /><path
         stroke-miterlimit="10"
         d="M 373.4,487.8 C 371,486.2 362.8,468.7 362.8,462.6"
         id="path3662"
         inkscape:connector-curvature="0"
         style="fill:none;stroke:#3d3a3a;stroke-width:1.41480005;stroke-linecap:round;stroke-miterlimit:10" /><path
         stroke-miterlimit="10"
         d="m 378.7,487.8 c 2.4,-1.6 10.6,-19.1 10.6,-25.2"
         id="path3664"
         inkscape:connector-curvature="0"
         style="fill:none;stroke:#3d3a3a;stroke-width:1.41480005;stroke-linecap:round;stroke-miterlimit:10" /></g><g
       id="g3666"><path
         stroke-miterlimit="10"
         d="M 373.4,574.8 C 371,568.7 362.8,500.1 362.8,476.2"
         id="path3668"
         inkscape:connector-curvature="0"
         style="fill:none;stroke:#3d3a3a;stroke-width:1.41480005;stroke-linecap:round;stroke-miterlimit:10" /><path
         stroke-miterlimit="10"
         d="m 378.7,574.8 c 2.4,-6.1 10.6,-74.7 10.6,-98.6"
         id="path3670"
         inkscape:connector-curvature="0"
         style="fill:none;stroke:#3d3a3a;stroke-width:1.41480005;stroke-linecap:round;stroke-miterlimit:10" /></g><line
       stroke-miterlimit="10"
       x1="342.39999"
       y1="324"
       x2="411"
       y2="324"
       id="line3672"
       style="fill:none;stroke:#3d3a3a;stroke-width:3.53690004;stroke-miterlimit:10" /><line
       stroke-miterlimit="10"
       x1="342.39999"
       y1="317.60001"
       x2="411"
       y2="317.60001"
       id="line3674"
       style="fill:none;stroke:#3d3a3a;stroke-width:3.53690004;stroke-miterlimit:10" /><path
       stroke-miterlimit="10"
       d="m 402.7,304.9 11,17.6 c 2.4,-3.3 5.1,-12.9 1.3,-25.3 -4.5,-14.9 -12.3,7.7 -12.3,7.7 z"
       id="path3676"
       inkscape:connector-curvature="0"
       style="fill:#3d3a3a;stroke:#3d3a3a;stroke-width:2.8296001;stroke-linecap:round;stroke-linejoin:round;stroke-miterlimit:10" /><path
       stroke-miterlimit="10"
       d="m 353.9,304.9 -13.1,17.6 c -2.4,-3.3 -5.1,-13.6 -1.3,-26.1 4.5,-14.8 14.4,8.5 14.4,8.5 z"
       id="path3678"
       inkscape:connector-curvature="0"
       style="fill:#3d3a3a;stroke:#3d3a3a;stroke-width:2.8296001;stroke-linecap:round;stroke-linejoin:round;stroke-miterlimit:10" /><path
       stroke-miterlimit="10"
       d="m 393.2,335.2 c 0,2.4 -1.4,4.3 -3,4.3 h -27 c -1.7,0 -3,-1.9 -3,-4.3 l 0,0 c 0,-2.4 1.4,-4.3 3,-4.3 h 27 c 1.7,0 3,1.9 3,4.3 l 0,0 z"
       id="path3680"
       inkscape:connector-curvature="0"
       style="fill:#f5f5f5;stroke:#3d3a3a;stroke-width:3.53690004;stroke-miterlimit:10" /><polygon
       stroke-miterlimit="10"
       points="320.7,377.9 326.3,378.8 329.2,370.3 313.1,360 307.9,363.3 310.3,388.7 323.5,389.7 325.4,384.5 314.6,382.6 315.5,363.3 316,367.5 323,372.7 "
       id="polygon3682"
       style="fill:#3d3a3a;stroke:#3d3a3a;stroke-width:2.8296001;stroke-linecap:round;stroke-linejoin:round;stroke-miterlimit:10" /><g
       id="g3684"><path
         d="m 306.6,364.7 -0.5,-1 c -4.5,-9.3 -6.4,-20.7 -6.4,-38 0,-24.3 5.6,-49 16.3,-49 10.7,0 16.3,24.6 16.3,49 0,17.3 -1.9,28.6 -6.4,38 l -0.5,1 h -18.8 z"
         id="path3686"
         inkscape:connector-curvature="0"
         style="fill:#f5f5f5" /><path
         d="m 316,278.5 c 8,0 14.5,20 14.5,47.2 0,17.8 -2.1,28.5 -6.2,37.2 h -16.5 c -4.2,-8.7 -6.2,-19.3 -6.2,-37.2 -0.1,-27.2 6.4,-47.2 14.4,-47.2 m 0,-3.5 c -4,0 -9.5,2.8 -13.6,15.9 -2.8,9.1 -4.4,21.5 -4.4,34.9 0,17.5 2,29.1 6.6,38.7 l 1,2 h 2.2 16.5 2.2 l 1,-2 c 4.6,-9.6 6.6,-21.2 6.6,-38.7 0,-13.4 -1.6,-25.8 -4.4,-34.9 C 325.5,277.7 319.9,275 316,275 l 0,0 z"
         id="path3688"
         inkscape:connector-curvature="0"
         style="fill:#3d3a3a" /></g><path
       stroke-miterlimit="10"
       d="m 304.4,284.8 c 0,6 22.6,6 22.6,0 0,-6 -5.1,-10.8 -11.3,-10.8 -6.2,0 -11.3,4.8 -11.3,10.8 z"
       id="path3690"
       inkscape:connector-curvature="0"
       style="fill:#f5f5f5;stroke:#3d3a3a;stroke-width:3.53690004;stroke-linejoin:round;stroke-miterlimit:10" /><g
       id="g3692"><path
         d="m 301.1,298.5 c 0,0.8 0.7,1.5 1.5,1.5 h 5 c 0.8,0 1.5,-0.7 1.5,-1.5 l 0,0 c 0,-0.8 -0.7,-1.5 -1.5,-1.5 h -5 c -0.8,0 -1.5,0.7 -1.5,1.5 l 0,0 z"
         id="path3694"
         inkscape:connector-curvature="0"
         style="fill:#3d3a3a" /><path
         d="m 301.1,305.6 c 0,0.8 0.7,1.5 1.5,1.5 h 5 c 0.8,0 1.5,-0.7 1.5,-1.5 l 0,0 c 0,-0.8 -0.7,-1.5 -1.5,-1.5 h -5 c -0.8,0 -1.5,0.7 -1.5,1.5 l 0,0 z"
         id="path3696"
         inkscape:connector-curvature="0"
         style="fill:#3d3a3a" /><path
         d="m 299.7,312.7 c 0,0.8 0.7,1.5 1.5,1.5 h 6.4 c 0.8,0 1.5,-0.7 1.5,-1.5 l 0,0 c 0,-0.8 -0.7,-1.5 -1.5,-1.5 h -6.4 c -0.8,-0.1 -1.5,0.6 -1.5,1.5 l 0,0 z"
         id="path3698"
         inkscape:connector-curvature="0"
         style="fill:#3d3a3a" /><path
         d="m 299,319.7 c 0,0.8 0.7,1.5 1.5,1.5 h 7.1 c 0.8,0 1.5,-0.7 1.5,-1.5 l 0,0 c 0,-0.8 -0.7,-1.5 -1.5,-1.5 h -7.1 c -0.8,0 -1.5,0.7 -1.5,1.5 l 0,0 z"
         id="path3700"
         inkscape:connector-curvature="0"
         style="fill:#3d3a3a" /><path
         d="m 299.7,326.8 c 0,0.8 0.7,1.5 1.5,1.5 h 6.4 c 0.8,0 1.5,-0.7 1.5,-1.5 l 0,0 c 0,-0.8 -0.7,-1.5 -1.5,-1.5 h -6.4 c -0.8,0 -1.5,0.7 -1.5,1.5 l 0,0 z"
         id="path3702"
         inkscape:connector-curvature="0"
         style="fill:#3d3a3a" /><path
         d="m 299.7,333.9 c 0,0.8 0.7,1.5 1.5,1.5 h 6.4 c 0.8,0 1.5,-0.7 1.5,-1.5 l 0,0 c 0,-0.8 -0.7,-1.5 -1.5,-1.5 h -6.4 c -0.8,0 -1.5,0.6 -1.5,1.5 l 0,0 z"
         id="path3704"
         inkscape:connector-curvature="0"
         style="fill:#3d3a3a" /><path
         d="m 299.7,341 c 0,0.8 0.7,1.5 1.5,1.5 h 6.4 c 0.8,0 1.5,-0.7 1.5,-1.5 l 0,0 c 0,-0.8 -0.7,-1.5 -1.5,-1.5 h -6.4 c -0.8,-0.1 -1.5,0.6 -1.5,1.5 l 0,0 z"
         id="path3706"
         inkscape:connector-curvature="0"
         style="fill:#3d3a3a" /><path
         d="m 301.1,348 c 0,0.8 0.7,1.5 1.5,1.5 h 5 c 0.8,0 1.5,-0.7 1.5,-1.5 l 0,0 c 0,-0.8 -0.7,-1.5 -1.5,-1.5 h -5 c -0.8,0 -1.5,0.7 -1.5,1.5 l 0,0 z"
         id="path3708"
         inkscape:connector-curvature="0"
         style="fill:#3d3a3a" /><path
         d="m 301.1,355.1 c 0,0.8 0.7,1.5 1.5,1.5 h 5 c 0.8,0 1.5,-0.7 1.5,-1.5 l 0,0 c 0,-0.8 -0.7,-1.5 -1.5,-1.5 h -5 c -0.8,0 -1.5,0.7 -1.5,1.5 l 0,0 z"
         id="path3710"
         inkscape:connector-curvature="0"
         style="fill:#3d3a3a" /></g><g
       id="g3712"><rect
         x="370.70001"
         y="196.89999"
         width="10.6"
         height="103.6"
         id="rect3714"
         style="fill:#f5f5f5" /><path
         d="m 380.3,198 v 101.5 h -8.5 V 198 h 8.5 m 2.1,-2.2 h -2.1 -8.5 -2.1 v 2.1 101.5 2.1 h 2.1 8.5 2.1 V 299.4 198 195.8 l 0,0 z"
         id="path3716"
         inkscape:connector-curvature="0"
         style="fill:#3d3a3a" /></g><rect
       x="355.5"
       y="280.20001"
       width="50"
       height="19.799999"
       id="rect3718"
       style="fill:#f5f5f5" /><path
       stroke-miterlimit="10"
       d="m 354.6,188 c -0.2,14 13.6,95.1 24.5,101.9 v 11.4 c -4.7,6.9 -15.5,8.5 -25.9,7 L 330.7,188.6 354.6,188 z"
       id="path3720"
       inkscape:connector-curvature="0"
       style="fill:#f5f5f5;stroke:#3d3a3a;stroke-width:2.8296001;stroke-linejoin:round;stroke-miterlimit:10" /><path
       stroke-miterlimit="10"
       d="m 401.1,188 c 0.2,14 -15.7,96.5 -26.6,103.4 v 11.4 c 5.8,7 15.4,7 29.5,7 l 16.1,-122 -19,0.2 z"
       id="path3722"
       inkscape:connector-curvature="0"
       style="fill:#f5f5f5;stroke:#3d3a3a;stroke-width:2.8296001;stroke-linejoin:round;stroke-miterlimit:10" /><path
       stroke-miterlimit="10"
       d="m 375.2,291.3 c 3.9,0.4 19.1,-6.1 27.1,-27.3"
       id="path3724"
       inkscape:connector-curvature="0"
       style="fill:none;stroke:#3d3a3a;stroke-width:2.8296001;stroke-linecap:round;stroke-linejoin:round;stroke-miterlimit:10" /><path
       stroke-miterlimit="10"
       d="m 376.1,289.9 c -3.9,0.4 -17.6,-2.6 -25.7,-23.8"
       id="path3726"
       inkscape:connector-curvature="0"
       style="fill:none;stroke:#3d3a3a;stroke-width:2.8296001;stroke-linecap:round;stroke-linejoin:round;stroke-miterlimit:10" /><g
       id="g3728"><defs
         id="defs3730"><path
           id="SVGID_1_"
           d="m 413.5,296.4 c 4.1,23.6 -77.1,24.1 -72.9,0 4.2,-24.7 -17.1,-110 -17.1,-110 35.4,3.6 67.8,4.1 107.1,0 0,0 -21.2,86.4 -17.1,110 z"
           inkscape:connector-curvature="0" /></defs><clipPath
         id="SVGID_2_"><use
           xlink:href="#SVGID_1_"
           overflow="visible"
           id="use3734"
           style="overflow:visible"
           x="0"
           y="0"
           width="800"
           height="600" /></clipPath><polygon
         clip-path="url(#SVGID_2_)"
         stroke-miterlimit="10"
         points="431.8,276.1 414.2,314.3 390.1,305.4 390.2,292.1 411.3,186.9 439,172.4 "
         id="polygon3736"
         style="fill:#3d3a3a;stroke:#3d3a3a;stroke-width:2.12220001;stroke-linecap:round;stroke-linejoin:round;stroke-miterlimit:10" /><polygon
         clip-path="url(#SVGID_2_)"
         stroke-miterlimit="10"
         points="340.2,186.9 313.9,172.4 321.1,276.1 342.2,311.4 365.5,304.8 366.2,292.9 "
         id="polygon3738"
         style="fill:#3d3a3a;stroke:#3d3a3a;stroke-width:2.12220001;stroke-linecap:round;stroke-linejoin:round;stroke-miterlimit:10" /></g><polygon
       points="417,215.6 408.2,225.7 420,225.7 "
       id="polygon3740"
       style="fill:#f5f5f5" /><polygon
       stroke-miterlimit="10"
       points="402,210.5 376.5,197 376.5,189.2 404.2,181.5 "
       id="polygon3742"
       style="fill:#f5f5f5;stroke:#3d3a3a;stroke-width:4.24429989;stroke-linecap:round;stroke-linejoin:round;stroke-miterlimit:10" /><polygon
       stroke-miterlimit="10"
       points="350.6,210.5 375.5,197 375.5,189.2 347.8,181.5 "
       id="polygon3744"
       style="fill:#f5f5f5;stroke:#3d3a3a;stroke-width:4.24429989;stroke-linecap:round;stroke-linejoin:round;stroke-miterlimit:10" /><rect
       x="370.5"
       y="185.89999"
       stroke-miterlimit="10"
       width="11.1"
       height="14.1"
       id="rect3746"
       style="fill:#f5f5f5;stroke:#3d3a3a;stroke-width:4.24429989;stroke-linecap:round;stroke-linejoin:round;stroke-miterlimit:10" /><g
       id="g3748"><line
         stroke-miterlimit="10"
         x1="378.20001"
         y1="295.5"
         x2="381.70001"
         y2="295.5"
         id="line3750"
         style="fill:none;stroke:#3d3a3a;stroke-width:1.41480005;stroke-linecap:round;stroke-miterlimit:10" /><line
         stroke-miterlimit="10"
         x1="378.20001"
         y1="300.5"
         x2="381.70001"
         y2="300.5"
         id="line3752"
         style="fill:none;stroke:#3d3a3a;stroke-width:1.41480005;stroke-linecap:round;stroke-miterlimit:10" /><circle
         cx="378.89999"
         cy="295.5"
         r="1.4"
         id="circle3754"
         sodipodi:cx="378.89999"
         sodipodi:cy="295.5"
         sodipodi:rx="1.4"
         sodipodi:ry="1.4"
         style="fill:#3d3a3a"
         d="m 380.29999,295.5 c 0,0.7732 -0.6268,1.4 -1.4,1.4 -0.77319,0 -1.4,-0.6268 -1.4,-1.4 0,-0.7732 0.62681,-1.4 1.4,-1.4 0.7732,0 1.4,0.6268 1.4,1.4 z" /><circle
         cx="378.89999"
         cy="300.5"
         r="1.4"
         id="circle3756"
         sodipodi:cx="378.89999"
         sodipodi:cy="300.5"
         sodipodi:rx="1.4"
         sodipodi:ry="1.4"
         style="fill:#3d3a3a"
         d="m 380.29999,300.5 c 0,0.7732 -0.6268,1.4 -1.4,1.4 -0.77319,0 -1.4,-0.6268 -1.4,-1.4 0,-0.7732 0.62681,-1.4 1.4,-1.4 0.7732,0 1.4,0.6268 1.4,1.4 z" /></g><circle
       cx="376"
       cy="210.60001"
       r="2.0999999"
       id="circle3758"
       sodipodi:cx="376"
       sodipodi:cy="210.60001"
       sodipodi:rx="2.0999999"
       sodipodi:ry="2.0999999"
       style="fill:#3d3a3a"
       d="m 378.1,210.60001 c 0,1.15979 -0.9402,2.1 -2.1,2.1 -1.1598,0 -2.1,-0.94021 -2.1,-2.1 0,-1.1598 0.9402,-2.1 2.1,-2.1 1.1598,0 2.1,0.9402 2.1,2.1 z" /><circle
       cx="376"
       cy="231.89999"
       r="2.0999999"
       id="circle3760"
       sodipodi:cx="376"
       sodipodi:cy="231.89999"
       sodipodi:rx="2.0999999"
       sodipodi:ry="2.0999999"
       style="fill:#3d3a3a"
       d="m 378.1,231.89999 c 0,1.1598 -0.9402,2.1 -2.1,2.1 -1.1598,0 -2.1,-0.9402 -2.1,-2.1 0,-1.15979 0.9402,-2.1 2.1,-2.1 1.1598,0 2.1,0.94021 2.1,2.1 z" /><circle
       cx="376"
       cy="253.10001"
       r="2.0999999"
       id="circle3762"
       sodipodi:cx="376"
       sodipodi:cy="253.10001"
       sodipodi:rx="2.0999999"
       sodipodi:ry="2.0999999"
       style="fill:#3d3a3a"
       d="m 378.1,253.10001 c 0,1.15979 -0.9402,2.1 -2.1,2.1 -1.1598,0 -2.1,-0.94021 -2.1,-2.1 0,-1.1598 0.9402,-2.1 2.1,-2.1 1.1598,0 2.1,0.9402 2.1,2.1 z" /><line
       stroke-miterlimit="10"
       x1="342.39999"
       y1="311.29999"
       x2="409.79999"
       y2="311.29999"
       id="line3764"
       style="fill:none;stroke:#3d3a3a;stroke-width:3.53690004;stroke-miterlimit:10" /><polygon
       stroke-miterlimit="10"
       points="390.2,293.1 414.1,287.6 417.2,310.6 398.1,321.9 390,305.6 "
       id="polygon3766"
       style="fill:#3d3a3a;stroke:#3d3a3a;stroke-width:2.12220001;stroke-linecap:round;stroke-linejoin:round;stroke-miterlimit:10" /><polygon
       stroke-miterlimit="10"
       points="365.9,293.9 339.4,287.6 337.7,309.8 357.5,321.9 365.6,304.9 "
       id="polygon3768"
       style="fill:#3d3a3a;stroke:#3d3a3a;stroke-width:2.12220001;stroke-linecap:round;stroke-linejoin:round;stroke-miterlimit:10" /></g><path
     style="fill:#ffffff"
     d="m -0.76827894,298.8562 0,-299.84797613 484.12954894,0 484.12955,0 0,299.84797613 0,299.84798 -484.12955,0 -484.12954894,0 0,-299.84798 z M 865.49041,547.4281 c 0.0775,-0.71579 0.0626,-7.8606 -0.0334,-15.87737 -0.34041,-28.43887 3.75048,-158.97937 5.0064,-159.75475 0.65081,-0.40178 2.83475,-4.17282 4.85319,-8.38007 l 3.66989,-7.64956 -4.34409,-4.42155 -4.34411,-4.42156 -0.24428,-13.88242 c -0.20348,-11.56464 -0.76772,-15.88156 -3.37952,-25.85642 -1.72438,-6.58572 -4.77586,-15.72171 -6.78106,-20.30221 -2.00518,-4.58051 -4.06776,-9.72305 -4.58351,-11.42786 -0.60434,-1.99772 -2.38313,-3.90959 -5.0035,-5.37787 -3.9288,-2.20142 -4.42606,-3.15568 -14.75937,-28.32374 -5.88146,-14.32506 -10.84506,-27.36594 -11.03023,-28.97973 l -0.33664,-2.93416 -9.57069,0.24287 c -9.19578,0.23336 -9.58364,0.1518 -9.90147,-2.08228 -0.24161,-1.69844 -1.05151,-2.33935 -3.00482,-2.37785 -1.47073,-0.0289 -4.10327,-1.06931 -5.85007,-2.3118 -1.74683,-1.24251 -3.47484,-1.9606 -3.84008,-1.59576 -0.93034,0.92934 -0.803,-8.28102 0.13361,-9.66428 0.42116,-0.62199 2.29004,-1.65177 4.15309,-2.2884 l 3.38733,-1.15752 0,4.04262 c 0,9.20844 4.03719,12.37326 6.99002,5.47959 3.62241,-8.45688 4.65583,-15.5716 5.2164,-35.91294 0.59616,-21.6327 0.2488,-23.69225 -3.99596,-23.69225 -1.56356,0 -1.96016,-0.78474 -1.97318,-3.90427 -0.009,-2.14735 -0.69577,-6.71535 -1.52626,-10.15111 -1.96271,-8.11978 -2.00631,-7.80854 1.09391,-7.80854 2.18118,0 2.61632,-0.4347 2.34507,-2.34256 -0.23845,-1.67729 -1.14705,-2.43612 -3.19927,-2.672 l -2.8662,-0.32944 0,-20.69218 c 0,-14.605007 -0.35659,-20.91232 -1.21215,-21.440512 -1.82678,-1.127806 -25.69898,-1.830978 -33.57106,-0.988858 l -6.90718,0.738902 0,21.260477 0,21.260481 -3.01526,0 c -2.76026,0 -4.28056,1.50934 -4.28056,4.24971 0,0.52578 1.36116,0.95598 3.02478,0.95598 l 3.02476,0 -1.40847,4.67501 c -0.77467,2.57125 -1.72737,7.49064 -2.11713,10.93195 -0.58836,5.19473 -1.04349,6.25696 -2.68091,6.25696 -4.79471,0 -5.10533,9.8363 -0.34828,11.02897 3.8655,0.96913 3.5855,6.25892 -0.53699,10.14572 -1.71974,1.6214 -3.19724,3.49393 -3.28333,4.16118 -0.0861,0.66723 -0.43786,-0.89514 -0.78169,-3.47196 l -0.62516,-4.68512 -6.76466,0 -6.76466,0 -0.87513,4.785 c -0.99149,5.42111 0.37106,11.96428 3.22442,15.48423 1.10186,1.35926 3.48334,2.46915 6.03031,2.81041 3.52281,0.472 4.75344,0.1066 7.54573,-2.24042 1.83503,-1.54241 3.33641,-2.22842 3.33641,-1.52445 0,0.70395 0.98359,3.24724 2.18574,5.65173 2.20995,4.42023 9.13152,9.91165 12.49297,9.91165 0.96488,0 2.03714,1.05415 2.38279,2.34256 0.95289,3.55189 0.77831,9.30779 -0.26283,8.66502 -0.50587,-0.3123 -2.23514,0.46575 -3.84285,1.729 -1.81145,1.42336 -4.03803,2.18 -5.85494,1.98963 -2.50796,-0.26279 -2.93183,0.0657 -2.93183,2.27167 0,2.55995 -0.0669,2.57771 -9.11977,2.42103 l -9.11978,-0.15785 -0.25765,4.68513 c -0.14172,2.57682 -1.95918,19.16609 -4.03882,36.86505 l -3.78117,32.17993 -3.5555,3.55167 c -2.88318,2.88009 -3.51982,4.27621 -3.36689,7.38335 0.10371,2.10742 -0.38306,5.88508 -1.08177,8.39479 -1.80124,6.46996 -2.79119,24.76472 -2.03475,37.60301 0.46074,7.81963 1.44935,13.30325 3.47249,19.26106 1.55559,4.58102 3.14181,12.07721 3.52491,16.65823 l 0.69656,8.32911 6.06637,0.53892 c 6.49603,0.5771 7.7753,-0.0744 8.24568,-4.1995 0.23415,-2.0534 -0.35558,-2.60648 -3.62889,-3.40333 -3.69804,-0.90026 -3.90848,-1.17344 -3.90848,-5.07406 0,-2.5531 0.40714,-3.87122 1.06944,-3.46234 0.58818,0.36313 0.93995,1.86985 0.78169,3.34828 -0.22836,2.13344 0.27825,2.84378 2.45547,3.44286 3.52037,0.96866 4.37755,0.3067 5.80509,-4.48302 0.94896,-3.18394 0.88446,-4.20607 -0.34271,-5.43193 -1.32064,-1.31922 -1.21025,-2.46788 0.87382,-9.09229 2.14754,-6.8261 2.37959,-9.5552 2.32668,-27.36395 -0.0452,-15.23342 -0.46463,-21.25247 -1.82395,-26.17875 -0.97086,-3.51841 -1.76519,-7.78898 -1.76519,-9.49014 0,-1.70114 -0.88411,-4.21577 -1.9647,-5.58803 -1.92722,-2.44745 -1.92183,-2.85216 0.2837,-21.22347 l 2.24841,-18.72844 2.55566,15.61708 c 2.49063,15.21972 3.43815,38.35719 3.11243,76.00314 -0.0857,9.90781 -2.28086,28.56841 -4.75389,40.4122 -2.1491,10.29252 -2.03536,11.12417 1.52147,11.12417 3.7859,0 7.07043,-4.13013 14.07566,-17.69936 4.39493,-8.51306 5.01776,-9.31071 4.47125,-5.72626 -1.50711,9.88488 -3.0054,49.18046 -2.42585,63.62271 0.67167,16.73787 1.0991,19.14782 3.39596,19.14782 0.79852,0 1.45187,0.85566 1.45187,1.90145 0,1.04581 0.44297,6.78508 0.98439,12.75395 0.54139,5.96888 1.5237,17.64593 2.18289,25.94902 1.03014,12.97558 2.10475,22.37781 5.86668,51.33062 0.6026,4.63773 0.84632,4.97714 3.36422,4.68512 2.45764,-0.28502 2.7798,-0.85685 3.40359,-6.04108 4.74382,-39.42501 5.67779,-48.86723 7.56939,-76.5237 0.60782,-8.88667 1.70421,-13.35003 3.62349,-14.75104 3.17333,-2.3164 2.80905,-56.83559 -0.57273,-85.71886 l -0.67045,-5.72626 4.77602,9.06429 c 4.76325,9.04005 11.4319,18.84808 14.60209,21.47626 0.99841,0.82773 2.58519,1.09671 3.9385,0.66764 2.60794,-0.82683 2.55159,-1.89533 -1.15182,-21.83794 -1.66468,-8.96423 -2.35958,-19.1796 -3.1983,-47.01669 -1.16291,-38.5966 -0.92469,-41.92138 5.46028,-76.20538 l 2.20137,-11.82022 8.22177,19.97183 c 7.85098,19.07116 8.16761,20.15238 7.02096,23.97544 -0.66043,2.20198 -0.84744,4.85867 -0.41556,5.90376 0.43189,1.04508 0.7017,4.47697 0.59958,7.62641 -0.24185,7.459 2.61771,25.27047 5.84405,36.4011 3.37116,11.63025 9.29882,22.94382 12.02125,22.94382 1.7792,0 1.99846,0.64426 1.75818,5.16629 -0.19577,3.68455 0.23048,5.72368 1.48613,7.10967 0.96833,1.06885 1.76061,2.92717 1.76061,4.12958 0,1.20242 0.79245,2.97782 1.761,3.94533 1.65316,1.65138 1.61907,6.86807 -0.55675,85.18746 -1.27476,45.8856 -2.58344,85.6538 -2.90821,88.37377 l -0.59047,4.94541 4.274,0 c 2.64914,0 4.3276,-0.49477 4.41501,-1.30142 l 0,0 z M 738.73082,150.06777 c -0.47545,-2.81115 -0.18139,-5.04949 0.95064,-7.23627 2.50543,-4.83974 2.12045,-9.15327 -0.99914,-11.19511 -2.80693,-1.83719 -4.83385,-1.20424 -2.76419,0.86319 0.67834,0.6776 1.20361,2.66097 1.16726,4.40748 -0.0655,3.1451 -0.0758,3.15086 -1.09417,0.60202 -0.931,-2.33036 -2.68571,-4.13926 -4.05105,-4.17615 -0.71548,-0.0194 -1.08661,11.40663 -0.46441,14.29786 0.80055,3.71999 2.53385,2.71931 2.70508,-1.56171 0.13805,-3.45103 0.20344,-3.54168 0.56326,-0.78085 0.55863,4.28605 2.44998,8.84968 3.66769,8.84968 0.59398,0 0.72491,-1.67035 0.31903,-4.07014 l 0,0 z"
     id="path4273"
     inkscape:connector-curvature="0" /><g
     id="g5218"
     transform="matrix(1,0,0,0.91148986,-325.038,172.01815)"><g
       id="g5220"><polygon
         style="fill:#3d3a3a"
         points="338.468,114.946 326.08,84.538 330.56,120.802 359.114,118.027 361.21,131.993 386.038,134.584 366.217,128.77 363.007,109.207 "
         id="polygon5222" /><path
         style="fill:#3d3a3a"
         inkscape:connector-curvature="0"
         d="m 386.039,135.623 c -0.037,0 -0.073,-10e-4 -0.108,-0.005 l -24.828,-2.592 c -0.471,-0.048 -0.85,-0.411 -0.92,-0.878 l -1.949,-12.99 -27.573,2.678 c -0.536,0.079 -1.062,-0.346 -1.131,-0.906 l -4.48,-36.264 c -0.063,-0.518 0.265,-1.002 0.769,-1.132 0.5,-0.135 1.026,0.13 1.225,0.612 l 12.052,29.586 23.677,-5.537 c 0.279,-0.065 0.573,-0.012 0.813,0.148 0.239,0.16 0.402,0.411 0.448,0.695 l 3.104,18.918 19.194,5.63 c 0.516,0.151 0.831,0.671 0.728,1.198 -0.1,0.492 -0.531,0.839 -1.021,0.839 z m -23.921,-4.579 12.665,1.321 -8.858,-2.598 c -0.384,-0.113 -0.668,-0.435 -0.733,-0.828 l -3.03,-18.468 -23.458,5.486 c -0.498,0.116 -1.005,-0.148 -1.198,-0.619 l -9.436,-23.163 3.396,27.495 27.547,-2.676 c 0.553,-0.061 1.045,0.333 1.128,0.878 l 1.977,13.172 z"
         id="path5224" /></g><g
       id="g5226"><polygon
         style="fill:#3d3a3a"
         points="490.609,122.331 505.884,93.265 497.915,128.924 469.762,123.397 466.324,137.095 441.361,137.269 461.652,133.403 466.74,114.24 "
         id="polygon5228" /><path
         style="fill:#3d3a3a"
         inkscape:connector-curvature="0"
         d="m 441.361,138.307 c -0.535,0 -0.983,-0.404 -1.034,-0.936 -0.052,-0.535 0.312,-1.022 0.839,-1.123 l 19.65,-3.742 4.919,-18.532 c 0.073,-0.278 0.261,-0.513 0.514,-0.649 0.249,-0.136 0.551,-0.162 0.825,-0.069 l 23.027,7.807 14.861,-28.281 c 0.242,-0.461 0.79,-0.671 1.279,-0.491 0.488,0.179 0.768,0.692 0.653,1.201 l -7.968,35.659 c -0.119,0.547 -0.651,0.907 -1.214,0.793 l -27.184,-5.336 -3.198,12.741 c -0.114,0.46 -0.527,0.783 -0.999,0.786 l -24.963,0.173 c -0.002,-0.001 -0.004,-0.001 -0.007,-0.001 z m 26.099,-22.727 -4.803,18.089 c -0.104,0.386 -0.418,0.68 -0.81,0.754 l -9.069,1.727 12.734,-0.088 3.242,-12.917 c 0.133,-0.535 0.648,-0.878 1.208,-0.767 l 27.159,5.332 6.04,-27.037 -11.633,22.141 c -0.238,0.453 -0.766,0.664 -1.254,0.501 L 467.46,115.58 z"
         id="path5230" /></g><g
       id="g5232"><path
         style="fill:#3d3a3a"
         inkscape:connector-curvature="0"
         d="m 405.308,509.63 c -0.003,0 0,0 -0.003,0 -2.959,0 -6.062,-0.079 -9.218,-0.231 -16.782,-0.814 -30.188,-3.424 -39.846,-7.754 -14.564,-6.529 -17.238,-15.776 -16.917,-22.384 0.432,-8.886 6.453,-20.079 15.802,-29.481 -12.304,-86.496 -30.754,-233.248 -17.955,-256.018 8.592,-15.286 49.285,-16.474 61.551,-16.474 4.091,0 8.274,0.103 12.435,0.304 l 0.331,0.017 0.298,2.787 0.128,-2.767 0.271,0.012 c 29.146,1.417 65.51,8.359 72.077,23.261 4.523,10.259 4.998,56.691 -42.438,252.155 8.912,10.506 14.13,22.601 13.683,31.843 -0.778,15.946 -18.607,24.73 -50.199,24.73 z m -6.586,-326.802 c -29.797,0 -52.063,5.358 -56.725,13.649 -8.683,15.447 -1.652,110.365 18.809,253.903 l 0.199,1.398 -1.017,0.982 c -8.817,8.527 -14.757,19.037 -15.133,26.771 -0.346,7.103 4.248,12.845 13.652,17.061 8.898,3.988 21.985,6.506 37.848,7.273 3.066,0.149 6.08,0.226 8.949,0.226 16.331,0 43.846,-2.527 44.668,-19.461 0.392,-8.055 -4.812,-19.44 -13.253,-29.008 l -0.956,-1.084 0.342,-1.403 c 34.615,-142.468 50.32,-233.59 43.091,-249.999 -4.428,-10.045 -32.093,-18.251 -67.274,-19.959 l -1.032,-0.052 c -4.073,-0.199 -8.166,-0.297 -12.168,-0.297 z"
         id="path5234" /></g><g
       id="g5236"><path
         style="fill:#f5f5f5"
         inkscape:connector-curvature="0"
         d="m 401.844,258.745 c -1.037,21.39 -19.219,37.886 -40.606,36.847 -21.388,-1.037 -37.886,-19.218 -36.846,-40.605 1.037,-21.388 19.216,-37.886 40.606,-36.848 21.384,1.038 37.883,19.218 36.846,40.606 z"
         id="path5238" /><path
         style="fill:#3d3a3a"
         inkscape:connector-curvature="0"
         d="m 363.149,298.348 c -0.679,0 -1.357,-0.017 -2.043,-0.05 -11.067,-0.538 -21.261,-5.353 -28.707,-13.558 -7.447,-8.205 -11.25,-18.819 -10.713,-29.886 1.106,-22.812 20.374,-40.573 43.444,-39.421 22.844,1.109 40.529,20.598 39.42,43.443 -1.075,22.134 -19.258,39.472 -41.401,39.472 z M 363.086,220.8 c -19.248,0 -35.057,15.074 -35.99,34.317 -0.467,9.622 2.84,18.848 9.314,25.982 6.474,7.134 15.338,11.32 24.959,11.787 20.011,0.963 36.81,-14.44 37.768,-34.274 0.964,-19.862 -14.411,-36.804 -34.271,-37.769 -0.597,-0.028 -1.189,-0.043 -1.78,-0.043 z"
         id="path5240" /></g><g
       id="g5242"><circle
         d="m 491.1,261.19501 c 0,21.41318 -17.35881,38.772 -38.772,38.772 -21.41318,0 -38.772,-17.35882 -38.772,-38.772 0,-21.41319 17.35882,-38.772 38.772,-38.772 21.41319,0 38.772,17.35881 38.772,38.772 z"
         style="fill:#f5f5f5"
         sodipodi:ry="38.771999"
         sodipodi:rx="38.771999"
         sodipodi:cy="261.19501"
         sodipodi:cx="452.328"
         cx="452.328"
         cy="261.19501"
         r="38.771999"
         id="circle5244" /><path
         style="fill:#3d3a3a"
         inkscape:connector-curvature="0"
         d="m 452.359,302.677 c -0.679,0 -1.357,-0.016 -2.042,-0.049 -11.068,-0.537 -21.263,-5.353 -28.71,-13.558 -7.443,-8.206 -11.25,-18.819 -10.712,-29.887 1.107,-22.809 20.456,-40.545 43.44,-39.421 22.846,1.109 40.533,20.598 39.426,43.445 -1.077,22.133 -19.262,39.47 -41.402,39.47 z m -0.062,-77.548 c -19.249,0 -35.057,15.074 -35.988,34.317 -0.469,9.621 2.84,18.849 9.312,25.984 6.473,7.133 15.337,11.32 24.958,11.786 20.009,0.963 36.807,-14.44 37.77,-34.273 0.964,-19.862 -14.41,-36.806 -34.272,-37.771 -0.599,-0.028 -1.19,-0.043 -1.78,-0.043 z"
         id="path5246" /></g><g
       id="g5248"><circle
         d="m 381.26599,253.938 c 0,7.83913 -6.35487,14.194 -14.194,14.194 -7.83913,0 -14.194,-6.35487 -14.194,-14.194 0,-7.83913 6.35487,-14.194 14.194,-14.194 7.83913,0 14.194,6.35487 14.194,14.194 z"
         style="fill:#3d3a3a"
         sodipodi:ry="14.194"
         sodipodi:rx="14.194"
         sodipodi:cy="253.938"
         sodipodi:cx="367.07199"
         cx="367.07199"
         cy="253.938"
         r="14.194"
         id="circle5250" /></g><g
       id="g5252"><circle
         d="m 464.25101,257.966 c 0,7.83913 -6.35487,14.194 -14.194,14.194 -7.83913,0 -14.194,-6.35487 -14.194,-14.194 0,-7.83913 6.35487,-14.194 14.194,-14.194 7.83913,0 14.194,6.35487 14.194,14.194 z"
         style="fill:#3d3a3a"
         sodipodi:ry="14.194"
         sodipodi:rx="14.194"
         sodipodi:cy="257.966"
         sodipodi:cx="450.05701"
         cx="450.05701"
         cy="257.966"
         r="14.194"
         id="circle5254" /></g><g
       id="g5256"><path
         style="fill:#3d3a3a"
         inkscape:connector-curvature="0"
         d="m 377.977,318.6 c 0.168,0 0.342,0.005 0.514,0.011 l 52.556,2.552 c 5.729,0.277 10.149,5.147 9.869,10.876 -0.269,5.561 -4.859,9.882 -10.362,9.882 -0.171,0 -0.342,-0.002 -0.514,-0.01 l -52.557,-2.553 c -5.728,-0.276 -10.148,-5.147 -9.871,-10.875 0.272,-5.559 4.859,-9.883 10.365,-9.883 m 0,-5.538 c -8.502,0 -15.485,6.657 -15.898,15.151 -0.207,4.249 1.254,8.321 4.113,11.474 2.858,3.151 6.773,4.997 11.022,5.204 l 52.558,2.552 c 0.26,0.011 0.521,0.02 0.781,0.02 8.503,0 15.486,-6.657 15.896,-15.155 0.206,-4.249 -1.254,-8.32 -4.112,-11.471 -2.859,-3.151 -6.771,-5 -11.021,-5.207 l -52.557,-2.549 c -0.263,-0.015 -0.521,-0.019 -0.782,-0.019 l 0,0 z"
         id="path5258" /></g><g
       id="g5260"><rect
         style="fill:#3d3a3a"
         x="373.79999"
         y="317.84"
         transform="matrix(0.9988,0.049,-0.049,0.9988,16.6067,-18.0596)"
         width="5.539"
         height="23.540001"
         id="rect5262" /></g><g
       id="g5264"><rect
         style="fill:#3d3a3a"
         x="387.63101"
         y="318.51001"
         transform="matrix(0.9988,0.0481,-0.0481,0.9988,16.3491,-18.4074)"
         width="5.539"
         height="23.541"
         id="rect5266" /></g><g
       id="g5268"><polygon
         style="fill:#3d3a3a"
         points="407.566,319.33 406.427,342.84 400.894,342.574 402.034,319.064 "
         id="polygon5270" /></g><g
       id="g5272"><polygon
         style="fill:#3d3a3a"
         points="421.398,320 420.259,343.514 414.726,343.248 415.866,319.734 "
         id="polygon5274" /></g><g
       id="g5276"><rect
         style="fill:#3d3a3a"
         x="429.125"
         y="320.52301"
         transform="matrix(0.9988,0.048,-0.048,0.9988,16.4305,-20.3273)"
         width="5.54"
         height="23.542"
         id="rect5278" /></g><g
       id="g5280"><path
         style="fill:#3d3a3a"
         inkscape:connector-curvature="0"
         d="m 402.536,527.246 c -22.494,0 -46.495,-5.175 -55.094,-14.704 -1.282,-1.417 -1.169,-3.608 0.25,-4.89 1.421,-1.278 3.612,-1.164 4.89,0.253 13.028,14.433 72.619,17.307 87.337,4.205 1.425,-1.268 3.615,-1.143 4.889,0.285 1.271,1.431 1.144,3.619 -0.285,4.889 -7.617,6.775 -24.337,9.962 -41.987,9.962 z"
         id="path5282" /></g><g
       id="g5284"><path
         style="fill:#3d3a3a"
         inkscape:connector-curvature="0"
         d="m 400.855,546.63 c -20.147,0 -41.646,-4.637 -49.347,-13.17 -1.281,-1.42 -1.168,-3.608 0.25,-4.89 1.421,-1.281 3.611,-1.164 4.889,0.253 11.175,12.38 64.562,14.953 77.196,3.717 1.426,-1.268 3.613,-1.148 4.887,0.288 1.271,1.428 1.144,3.616 -0.288,4.886 -6.816,6.062 -21.786,8.916 -37.587,8.916 z"
         id="path5286" /></g><g
       id="g5288"><path
         style="fill:#3d3a3a"
         inkscape:connector-curvature="0"
         d="m 398.2,565.504 c -15.108,0 -31.157,-3.573 -37.122,-10.184 -1.281,-1.42 -1.168,-3.608 0.25,-4.89 1.423,-1.278 3.611,-1.164 4.89,0.253 8.104,8.976 46.82,10.834 55.987,2.685 1.429,-1.268 3.616,-1.147 4.888,0.288 1.27,1.428 1.143,3.616 -0.288,4.887 -5.32,4.729 -16.669,6.961 -28.605,6.961 z"
         id="path5290" /></g><g
       id="g5292"><circle
         d="m 489.61899,320.892 c 0,7.83913 -6.35487,14.194 -14.194,14.194 -7.83913,0 -14.194,-6.35487 -14.194,-14.194 0,-7.83913 6.35487,-14.194 14.194,-14.194 7.83913,0 14.194,6.35487 14.194,14.194 z"
         style="fill:#3d3a3a"
         sodipodi:ry="14.194"
         sodipodi:rx="14.194"
         sodipodi:cy="320.892"
         sodipodi:cx="475.42499"
         cx="475.42499"
         cy="320.892"
         r="14.194"
         id="circle5294" /></g><g
       id="g5296"><circle
         d="m 531.80897,365.754 c 0,5.73603 -4.64997,10.386 -10.386,10.386 -5.73603,0 -10.386,-4.64997 -10.386,-10.386 0,-5.73603 4.64997,-10.386 10.386,-10.386 5.73603,0 10.386,4.64997 10.386,10.386 z"
         style="fill:#3d3a3a"
         sodipodi:ry="10.386"
         sodipodi:rx="10.386"
         sodipodi:cy="365.754"
         sodipodi:cx="521.42297"
         cx="521.42297"
         cy="365.754"
         r="10.386"
         id="circle5298" /></g><g
       id="g5300"><polygon
         style="fill:#3d3a3a"
         points="516.271,407.704 518.793,369.183 478.034,329.869 484.762,322.892 528.761,365.328 525.94,408.34 "
         id="polygon5302" /></g><g
       id="g5304"><g
         id="g5306"><path
           style="fill:#f5f5f5"
           inkscape:connector-curvature="0"
           d="m 537.856,443.294 c -1.322,-0.065 -2.379,-1.124 -2.441,-2.443 -0.619,-12.937 -6.307,-21.551 -14.491,-21.947 -0.192,-0.011 -0.38,-0.017 -0.567,-0.017 -7.898,0 -14.172,8.03 -15.982,20.457 -0.185,1.268 -1.273,2.196 -2.538,2.196 -0.044,0 -0.085,0 -0.129,-0.003 -1.318,-0.062 -2.375,-1.121 -2.44,-2.44 -0.086,-1.824 -0.086,-3.66 0,-5.446 0.831,-17.131 9.226,-28.196 21.388,-28.196 0.305,0 0.614,0.005 0.921,0.021 5.948,0.288 11.15,3.329 14.642,8.562 3.586,5.382 5.259,12.863 4.832,21.638 -0.087,1.792 -0.266,3.616 -0.529,5.422 -0.185,1.268 -1.271,2.196 -2.538,2.196 -0.044,0 -0.085,0 -0.128,0 z"
           id="path5308" /></g><g
         id="g5310"><g
           id="g5312"><path
             style="fill:#3d3a3a"
             inkscape:connector-curvature="0"
             d="m 520.654,408.02 c 0.265,0 0.53,0.005 0.796,0.019 10.121,0.494 17.878,10.138 17.033,27.513 -0.084,1.77 -0.258,3.497 -0.502,5.177 -0.718,-14.978 -7.841,-23.947 -16.933,-24.393 -0.233,-0.011 -0.465,-0.017 -0.692,-0.017 -8.802,0 -16.417,8.193 -18.524,22.653 -0.081,-1.694 -0.087,-3.432 0,-5.196 0.82,-16.922 9.047,-25.756 18.822,-25.756 m 0,-5.134 0,0 c -6.554,0 -12.525,3.019 -16.815,8.503 -4.228,5.408 -6.695,13.064 -7.135,22.138 -0.093,1.87 -0.093,3.787 0,5.692 0.125,2.642 2.237,4.754 4.879,4.885 0.084,0.002 0.168,0.005 0.253,0.005 2.535,0 4.707,-1.862 5.076,-4.393 1.618,-11.094 6.896,-18.261 13.444,-18.261 0.146,0 0.293,0.006 0.442,0.011 6.667,0.323 11.512,8.161 12.052,19.507 0.129,2.641 2.24,4.754 4.881,4.884 0.084,0.003 0.168,0.005 0.253,0.005 2.532,0 4.709,-1.861 5.076,-4.393 0.274,-1.889 0.461,-3.795 0.552,-5.668 0.453,-9.328 -1.365,-17.348 -5.262,-23.186 -3.956,-5.929 -9.869,-9.376 -16.653,-9.705 -0.344,-0.015 -0.698,-0.024 -1.043,-0.024 l 0,0 0,0 z"
             id="path5314" /></g></g></g><g
       id="g5316"><g
         id="g5318"><circle
           d="m 349.57701,314.09399 c 0,7.83803 -6.35397,14.192 -14.192,14.192 -7.83803,0 -14.192,-6.35397 -14.192,-14.192 0,-7.83802 6.35397,-14.192 14.192,-14.192 7.83803,0 14.192,6.35398 14.192,14.192 z"
           style="fill:#3d3a3a"
           sodipodi:ry="14.192"
           sodipodi:rx="14.192"
           sodipodi:cy="314.09399"
           sodipodi:cx="335.38501"
           cx="335.38501"
           cy="314.09399"
           r="14.192"
           id="circle5320" /></g><g
         id="g5322"><circle
           d="m 295.64099,354.29199 c 0,5.73493 -4.64908,10.384 -10.384,10.384 -5.73493,0 -10.384,-4.64907 -10.384,-10.384 0,-5.73492 4.64907,-10.384 10.384,-10.384 5.73492,0 10.384,4.64908 10.384,10.384 z"
           style="fill:#3d3a3a"
           sodipodi:ry="10.384"
           sodipodi:rx="10.384"
           sodipodi:cy="354.29199"
           sodipodi:cx="285.25699"
           cx="285.25699"
           cy="354.29199"
           r="10.384"
           id="circle5324" /></g><g
         id="g5326"><polygon
           style="fill:#3d3a3a"
           points="276.635,396.24 277.997,353.157 325.898,315.182 331.919,322.778 287.542,357.957 286.325,396.543 "
           id="polygon5328" /></g><g
         id="g5330"><g
           id="g5332"><path
             style="fill:#f5f5f5"
             inkscape:connector-curvature="0"
             d="m 297.541,431.631 c -1.322,-0.065 -2.375,-1.124 -2.441,-2.443 -0.619,-12.937 -6.307,-21.551 -14.492,-21.95 -0.19,-0.009 -0.38,-0.014 -0.57,-0.014 -7.897,0 -14.169,8.031 -15.98,20.454 -0.184,1.271 -1.271,2.199 -2.538,2.199 -0.041,0 -0.084,0 -0.125,-0.002 -1.322,-0.063 -2.378,-1.122 -2.44,-2.441 -0.089,-1.824 -0.089,-3.654 -0.002,-5.446 0.831,-17.131 9.228,-28.196 21.387,-28.196 0.304,0 0.611,0.005 0.921,0.021 10.397,0.505 20.451,10.037 19.474,30.2 -0.087,1.794 -0.266,3.619 -0.529,5.424 -0.182,1.266 -1.271,2.194 -2.539,2.194 -0.042,0 -0.085,0 -0.126,0 z"
             id="path5334" /></g><g
           id="g5336"><g
             id="g5338"><path
               style="fill:#3d3a3a"
               inkscape:connector-curvature="0"
               d="m 280.339,396.355 c 0.264,0 0.53,0.007 0.795,0.021 10.121,0.493 17.878,10.137 17.033,27.512 -0.084,1.771 -0.258,3.496 -0.502,5.178 -0.717,-14.979 -7.84,-23.948 -16.933,-24.393 -0.233,-0.012 -0.464,-0.017 -0.695,-0.017 -8.801,0 -16.411,8.193 -18.521,22.652 -0.081,-1.694 -0.087,-3.431 0,-5.196 0.821,-16.921 9.047,-25.757 18.823,-25.757 m 0,-5.133 c -6.556,0 -12.526,3.02 -16.813,8.504 -4.229,5.408 -6.698,13.063 -7.138,22.137 -0.092,1.873 -0.092,3.79 0,5.696 0.128,2.639 2.24,4.75 4.882,4.881 0.084,0 0.168,0.006 0.25,0.006 2.536,0 4.708,-1.862 5.079,-4.393 1.616,-11.094 6.891,-18.26 13.439,-18.26 0.149,0 0.296,0.005 0.445,0.01 6.665,0.323 11.511,8.162 12.051,19.507 0.128,2.642 2.24,4.754 4.881,4.884 0.084,0.003 0.168,0.006 0.252,0.006 2.533,0 4.708,-1.862 5.077,-4.393 0.277,-1.884 0.461,-3.793 0.551,-5.669 1.064,-21.936 -10.238,-32.323 -21.912,-32.891 -0.346,-0.017 -0.699,-0.025 -1.044,-0.025 l 0,0 z"
               id="path5340" /></g></g></g></g><g
       id="g5342"><path
         style="fill:#3d3a3a"
         inkscape:connector-curvature="0"
         d="m 428.309,138.375 c 0.38,-7.83 -5.661,-14.484 -13.491,-14.864 -7.828,-0.38 -14.482,5.659 -14.863,13.488 -0.309,6.386 3.651,11.986 9.369,14.043 l -1.414,29.165 8.299,0.403 1.415,-29.165 c 5.891,-1.492 10.375,-6.682 10.685,-13.07 z"
         id="path5344" /></g><g
       id="g5346"><polygon
         style="fill:#3d3a3a"
         points="417.986,111.874 397.421,92.854 416.396,87.537 410.876,72.709 427.386,61.034 416.146,35.535 435.784,59.362 419.632,77.988 425.943,90.771 406.276,96.056 "
         id="polygon5348" /><path
         style="fill:#3d3a3a"
         inkscape:connector-curvature="0"
         d="m 417.986,112.913 c -0.253,0 -0.505,-0.092 -0.706,-0.276 L 396.717,93.616 c -0.277,-0.255 -0.394,-0.641 -0.306,-1.005 0.089,-0.366 0.368,-0.656 0.73,-0.757 l 17.886,-5.012 -5.126,-13.77 c -0.162,-0.441 -0.011,-0.938 0.375,-1.211 L 426.092,60.676 415.195,35.954 c -0.209,-0.475 -0.035,-1.032 0.405,-1.303 0.445,-0.271 1.016,-0.179 1.347,0.223 L 436.586,58.7 c 0.323,0.393 0.314,0.958 -0.017,1.342 l -15.699,18.105 6.005,12.164 c 0.139,0.28 0.144,0.605 0.017,0.888 -0.131,0.284 -0.378,0.494 -0.679,0.575 l -18.193,4.888 10.801,14.594 c 0.32,0.43 0.258,1.033 -0.142,1.391 -0.196,0.177 -0.446,0.266 -0.693,0.266 z M 399.49,93.352 410.569,103.6 405.443,96.674 c -0.206,-0.275 -0.261,-0.635 -0.146,-0.959 0.111,-0.324 0.381,-0.571 0.712,-0.661 l 18.444,-4.956 -5.753,-11.65 c -0.185,-0.375 -0.127,-0.825 0.147,-1.14 l 15.577,-17.964 -14.294,-17.34 8.205,18.61 c 0.197,0.452 0.052,0.983 -0.351,1.268 l -15.857,11.214 5.242,14.078 c 0.101,0.273 0.082,0.574 -0.049,0.833 -0.133,0.259 -0.366,0.451 -0.646,0.529 l -17.184,4.816 z"
         id="path5350" /></g></g></svg>